<?xml version="1.0" encoding="UTF-8"?>
<svg width="1200pt" height="1200pt" version="1.1" viewBox="0 0 1200 1200" xmlns="http://www.w3.org/2000/svg">
 <g>
  <path d="m1125 1120.6c0.027344-7.793-2.1328-15.438-6.2266-22.07-4.0977-6.6289-9.9727-11.977-16.953-15.438l-164.32-82.16v-382.16c-0.050781-44.738-17.844-87.633-49.48-119.27s-74.531-49.43-119.27-49.48h-318.75v-275.57l71.852-107.77c2.5195-3.7852 3.582-8.3555 2.9883-12.863-0.59766-4.5078-2.8125-8.6445-6.2305-11.641-3.4219-2.9961-7.8125-4.6484-12.359-4.6484h-150c-4.9727 0-9.7422 1.9727-13.258 5.4922-3.5195 3.5156-5.4922 8.2852-5.4922 13.258v93.75h-37.5v-93.75c0-4.9727-1.9727-9.7422-5.4922-13.258-3.5156-3.5195-8.2852-5.4922-13.258-5.4922h-150c-4.5469 0-8.9375 1.6523-12.359 4.6484-3.418 2.9961-5.6328 7.1328-6.2305 11.641-0.59375 4.5078 0.46875 9.0781 2.9883 12.863l71.852 107.77v538.07h-56.25c-20.098 0-38.664 10.723-48.715 28.125-10.047 17.402-10.047 38.848 0 56.25 10.051 17.402 28.617 28.125 48.715 28.125h58.145c4.3477 21.16 15.859 40.172 32.594 53.832 16.73 13.664 37.66 21.137 59.262 21.168h243.75v112.5h-243.75c-24.855 0.027344-48.684 9.9141-66.258 27.492-17.578 17.574-27.465 41.402-27.492 66.258v37.5c0 4.9727 1.9727 9.7422 5.4922 13.258 3.5156 3.5195 8.2852 5.4922 13.258 5.4922h450c4.9727 0 9.7422-1.9727 13.258-5.4922 3.5195-3.5156 5.4922-8.2852 5.4922-13.258v-243.75h75v112.5c0.046875 39.77 15.863 77.895 43.984 106.02s66.246 43.938 106.02 43.984h183.07c11.113-0.011719 21.773-4.4297 29.633-12.289 7.8633-7.8594 12.285-18.516 12.297-29.633zm-787.5-719.07 32.008-32.008v0.003906c3.5156-3.5156 5.4922-8.2852 5.4922-13.258s-1.9766-9.7422-5.4922-13.258c-3.5156-3.5156-8.2852-5.4922-13.258-5.4922h-75c-4.9727 0-9.7422 1.9766-13.258 5.4922-3.5156 3.5156-5.4922 8.2852-5.4922 13.258s1.9766 9.7422 5.4922 13.258l32.008 32.004v48.488h-75v-187.5h37.5v-37.5h-37.5v-37.5h187.5v37.5h-37.5v37.5h37.5v187.5h-75zm37.5-326.51h96.223l-50.008 75h-46.215zm-112.5 0v75h-46.215l-50.008-75zm-150 693.75c0.003906-4.9727 1.9805-9.7383 5.4961-13.254s8.2812-5.4922 13.254-5.4961h56.25v37.5h-56.25c-4.9727-0.003906-9.7383-1.9805-13.254-5.4961s-5.4922-8.2812-5.4961-13.254zm675 243.75v-131.25c0-4.9727-1.9727-9.7422-5.4922-13.258-3.5156-3.5195-8.2852-5.4922-13.258-5.4922h-112.5c-4.9727 0-9.7422 1.9727-13.258 5.4922-3.5195 3.5156-5.4922 8.2852-5.4922 13.258v243.75h-412.5v-18.75c0.015625-14.914 5.9492-29.211 16.492-39.758 10.547-10.543 24.844-16.477 39.758-16.492h262.5c4.9727 0 9.7422-1.9727 13.258-5.4922 3.5195-3.5156 5.4922-8.2852 5.4922-13.258v-243.75c0.019531-19.883 7.9297-38.949 21.992-53.008 14.059-14.062 33.125-21.973 53.008-21.992h131.25c6.6992 0 12.887-3.5742 16.238-9.375 3.3477-5.8008 3.3477-12.949 0-18.75-3.3516-5.8008-9.5391-9.375-16.238-9.375h-131.25c-29.828 0.03125-58.422 11.895-79.512 32.988-21.094 21.09-32.957 49.684-32.988 79.512v75h-243.75c-14.914-0.015625-29.211-5.9492-39.758-16.492-10.543-10.547-16.477-24.844-16.492-39.758v-318.75h543.75c34.797 0.039062 68.156 13.883 92.762 38.488s38.449 57.965 38.488 92.762v393.75c0 3.4805 0.96875 6.8945 2.8008 9.8594 1.8281 2.9609 4.4492 5.3555 7.5625 6.9141l174.68 87.34c1.5117 0.74219 2.4648 2.2812 2.4531 3.9648-0.007812 2.4414-1.9883 4.418-4.4297 4.4219h-183.07c-29.828-0.03125-58.422-11.895-79.512-32.988-21.094-21.09-32.957-49.684-32.988-79.512z"/>
  <path d="m431.25 600c-4.9727 0-9.7422 1.9727-13.258 5.4922-3.5195 3.5156-5.4922 8.2852-5.4922 13.258v168.75h-93.75c-6.6992 0-12.887-3.5742-16.238-9.375-3.3477-5.8008-3.3477-12.949 0-18.75 3.3516-5.8008 9.5391-9.375 16.238-9.375h37.5c4.9727 0 9.7422-1.9727 13.258-5.4922 3.5195-3.5156 5.4922-8.2852 5.4922-13.258v-112.5c0-6.6992-3.5742-12.887-9.375-16.238-5.8008-3.3477-12.949-3.3477-18.75 0-5.8008 3.3516-9.375 9.5391-9.375 16.238v93.75h-18.75c-20.098 0-38.664 10.723-48.715 28.125-10.047 17.402-10.047 38.848 0 56.25 10.051 17.402 28.617 28.125 48.715 28.125h112.5c4.9727 0 9.7422-1.9727 13.258-5.4922 3.5195-3.5156 5.4922-8.2852 5.4922-13.258v-187.5c0-4.9727-1.9727-9.7422-5.4922-13.258-3.5156-3.5195-8.2852-5.4922-13.258-5.4922z"/>
 </g>
</svg>
